<svg xmlns="http://www.w3.org/2000/svg" viewBox="0 0 197.37 48.61"><defs><style>.cls-1,.cls-2{fill:#132533;}.cls-2{stroke:#122433;stroke-miterlimit:10;stroke-width:0.35px;}</style></defs><title>Fichier 1</title><g id="Calque_2" data-name="Calque 2"><g id="Calque_1-2" data-name="Calque 1"><path class="cls-1" d="M34.12,0H15.47V25.14H40.62V6.5A6.5,6.5,0,0,0,34.12,0Z"/><path class="cls-1" d="M9.67,0H6.5A6.5,6.5,0,0,0,0,6.5V9.67H9.67Z"/><rect class="cls-1" y="15.47" width="9.67" height="9.67"/><path class="cls-1" d="M31,40.62h3.17a6.5,6.5,0,0,0,6.5-6.5V31H31Z"/><rect class="cls-1" x="15.47" y="30.95" width="9.67" height="9.67"/><path class="cls-1" d="M0,31v3.17a6.5,6.5,0,0,0,6.5,6.5H9.67V31Z"/><path class="cls-2" d="M61.8,2.78h3.45V34.83h16.3v3.1H61.8Z"/><path class="cls-2" d="M93.85,12.18c7,0,10.5,5.35,10.5,11.6,0,.6-.1,1.75-.1,1.75H85c.15,6.45,4.55,9.95,9.75,9.95a11.69,11.69,0,0,0,7.65-3L103.9,35a14.41,14.41,0,0,1-9.3,3.5A12.71,12.71,0,0,1,81.45,25.38C81.45,17.13,87.05,12.18,93.85,12.18Zm7.05,10.55c-.2-5.25-3.4-7.7-7.15-7.7-4.2,0-7.85,2.65-8.65,7.7Z"/><path class="cls-2" d="M118.5,12.18a8.88,8.88,0,0,1,8.2,4.75h.1a18.14,18.14,0,0,1-.1-1.9V2.78h3.4V37.93h-3.3V35.28a14.07,14.07,0,0,1,.1-1.8h-.1s-2,5.05-8.65,5.05c-6.75,0-11-5.4-11-13.2S111.9,12.18,118.5,12.18Zm.15,23.3c4.2,0,8.15-3,8.15-10.15,0-5.1-2.6-10.1-8-10.1-4.45,0-8.1,3.75-8.1,10.1S114,35.48,118.65,35.48Z"/><path class="cls-2" d="M143.5,45.38c4.9,0,8.8-2.3,8.8-7.9v-2.3a17.37,17.37,0,0,1,.1-1.8h-.1c-1.5,2.8-4.05,4.4-8,4.4-6.75,0-11.2-5.35-11.2-12.9s4.15-12.7,10.9-12.7,8.3,4.2,8.3,4.2h.1a5.74,5.74,0,0,1,0-.85V12.78h3.3V37.33c0,8-5.9,11.1-12,11.1a18.43,18.43,0,0,1-8.25-2l1.3-2.8A15.44,15.44,0,0,0,143.5,45.38Zm8.85-20.5c0-7.35-3.5-9.6-7.95-9.6-4.9,0-7.75,3.55-7.75,9.55s3.25,9.9,8.25,9.9C148.85,34.73,152.35,32.28,152.35,24.88Z"/><path class="cls-2" d="M171.05,12.18c6.95,0,10.5,5.35,10.5,11.6,0,.6-.1,1.75-.1,1.75h-19.3c.15,6.45,4.55,9.95,9.75,9.95a11.69,11.69,0,0,0,7.65-3L181.1,35a14.41,14.41,0,0,1-9.3,3.5,12.71,12.71,0,0,1-13.15-13.15C158.65,17.13,164.25,12.18,171.05,12.18Zm7,10.55c-.2-5.25-3.4-7.7-7.15-7.7-4.2,0-7.85,2.65-8.65,7.7Z"/><path class="cls-2" d="M184.55,12.78h3.35v4.45c0,1.1-.1,2-.1,2h.1c1.2-3.8,4-6.7,7.95-6.7a6.8,6.8,0,0,1,1.35.15V16a8.61,8.61,0,0,0-1.25-.1c-3.55,0-6.2,2.8-7.3,6.5a16.59,16.59,0,0,0-.7,4.9v10.6h-3.4Z"/></g></g></svg>